<?xml version="1.0" encoding="UTF-8"?>
<svg version="1.1" xmlns="http://www.w3.org/2000/svg" width="737" height="189" viewBox="0 0 737 189">
<path d="M0 0 C5.32545538 4.62896725 7.40414714 10.11782153 8.77734375 16.90234375 C9.0089293 20.83378415 8.3763138 24.77333203 7.94140625 28.6875 C-18.12859375 28.6875 -44.19859375 28.6875 -71.05859375 28.6875 C-69.57359375 31.1625 -69.57359375 31.1625 -68.05859375 33.6875 C-68.05859375 34.3475 -68.05859375 35.0075 -68.05859375 35.6875 C-66.39553535 36.36311748 -64.7276477 37.02683281 -63.05859375 37.6875 C-61.86105469 38.18121094 -60.66351562 38.67492187 -59.4296875 39.18359375 C-55.03010906 40.82252451 -50.77939158 41.49447647 -46.12109375 41.9375 C-45.29480469 42.01685791 -44.46851563 42.09621582 -43.6171875 42.17797852 C-28.94660737 43.42155693 -16.06784395 41.42227329 -1.98706055 37.24414062 C-0.02405737 36.67753128 1.95926774 36.18303463 3.94140625 35.6875 C3.94140625 41.2975 3.94140625 46.9075 3.94140625 52.6875 C-11.45174568 53.84924732 -26.80290741 54.88693568 -42.24609375 54.9375 C-43.35887695 54.94652344 -44.47166016 54.95554687 -45.61816406 54.96484375 C-60.86985932 54.90956729 -74.65591092 52.4143068 -86.05859375 41.6875 C-90.97427548 36.34024878 -94.01362708 31.33191474 -94.0859375 23.86328125 C-93.62998987 14.5455822 -91.17897429 7.81776814 -84.28125 1.41796875 C-62.84794926 -15.26911777 -22.24521507 -15.91786409 0 0 Z M-66.68359375 9.08984375 C-69.11644673 11.91665304 -70.05859375 13.93882996 -70.05859375 17.6875 C-51.24859375 17.6875 -32.43859375 17.6875 -13.05859375 17.6875 C-14.47644028 11.3858596 -14.47644028 11.3858596 -18.12109375 7.4375 C-18.64832031 6.97859375 -19.17554688 6.5196875 -19.71875 6.046875 C-26.49672083 2.10908894 -33.26700005 1.18332295 -40.99609375 1.3125 C-42.31323364 1.32772705 -42.31323364 1.32772705 -43.65698242 1.34326172 C-52.81793498 1.56281822 -59.73190085 2.82329366 -66.68359375 9.08984375 Z " fill="#283C97" transform="translate(591.05859375,58.3125)"/>
<path d="M0 0 C2.0558848 0.00314874 4.11030848 -0.02035102 6.16601562 -0.0456543 C21.41576278 -0.11787885 37.05257317 1.69903399 48.59960938 12.53442383 C54.07875819 18.19993825 56.24867956 24.04200584 56.35742188 31.83520508 C55.82098623 40.35275642 52.74211995 46.84718005 46.47070312 52.65551758 C28.23928077 66.74343485 2.25103623 66.36813165 -19.52148438 63.84301758 C-29.56676721 62.10999874 -40.04060877 58.40467066 -46.67773438 50.31567383 C-47.37898437 49.55254883 -48.08023438 48.78942383 -48.80273438 48.00317383 C-53.25286782 41.62464922 -54.76678516 35.04673761 -53.67773438 27.31567383 C-50.72670436 17.78157686 -45.22675891 12.16437431 -36.67773438 7.31567383 C-24.67649125 1.36410367 -13.28083472 -0.04232561 0 0 Z M-27.05273438 21.62817383 C-29.59928006 25.83976861 -31.08233628 29.61367718 -30.33789062 34.58520508 C-28.47284297 41.06321083 -25.35859299 46.23491355 -19.40429688 49.60083008 C-7.81990647 54.45375038 6.24441847 54.79777341 17.93945312 50.31176758 C24.36353778 47.42378887 29.25226488 43.91772906 32.19726562 37.37036133 C33.75812152 32.39513316 33.54392933 28.04242336 31.32226562 23.31567383 C27.45466078 17.38108458 23.25187373 13.88293099 16.32226562 12.31567383 C1.02017256 9.22898553 -15.41192607 10.29370258 -27.05273438 21.62817383 Z " fill="#283C97" transform="translate(234.677734375,48.684326171875)"/>
<path d="M0 0 C1.86505982 0.01697475 3.73013247 0.0325922 5.59521484 0.046875 C17.84560554 0.16250554 30.08931786 0.45473283 42.3125 1.3125 C40.56442871 6.77987191 38.65455919 12.07074848 36.3125 17.3125 C34.59353516 16.89677734 34.59353516 16.89677734 32.83984375 16.47265625 C31.3099356 16.10660461 29.77998543 15.74072853 28.25 15.375 C27.12174805 15.10139648 27.12174805 15.10139648 25.97070312 14.82226562 C16.69998135 12.61495092 7.89326826 12.12994455 -1.625 12.125 C-2.86185547 12.11275391 -4.09871094 12.10050781 -5.37304688 12.08789062 C-11.83772461 12.07752503 -17.51108662 12.3567646 -23.6875 14.3125 C-23.6875 16.2925 -23.6875 18.2725 -23.6875 20.3125 C-15.48166978 23.95279437 -6.16772321 24.16029645 2.69140625 24.77734375 C4.38777222 24.89625977 4.38777222 24.89625977 6.1184082 25.01757812 C8.36492727 25.16918273 10.6121855 25.31030621 12.86010742 25.43945312 C23.76347948 26.16077476 34.40628762 27.87256754 42.6875 35.5 C44.939705 39.39804712 45.47921863 42.83491391 45.3125 47.3125 C43.85460492 52.6234035 40.62355121 55.11548528 36.109375 57.92578125 C23.75062777 64.05337241 10.66684169 64.48513619 -2.8125 64.4375 C-4.13169434 64.43556641 -5.45088867 64.43363281 -6.81005859 64.43164062 C-17.45202914 64.39588554 -28.0664596 64.03133553 -38.68994141 63.40429688 C-40.68725389 63.31251131 -42.68807965 63.3125 -44.6875 63.3125 C-45.52669398 61.04367913 -46.35901724 58.77272973 -47.1875 56.5 C-47.42597656 55.85740234 -47.66445313 55.21480469 -47.91015625 54.55273438 C-48.95818746 51.66316261 -49.6875 49.41173939 -49.6875 46.3125 C-44.71557045 46.81983975 -39.94542982 47.67932436 -35.0625 48.75 C-28.5412207 50.08300699 -22.06469323 50.89410765 -15.4375 51.5 C-14.53950684 51.5837085 -13.64151367 51.66741699 -12.71630859 51.75366211 C-4.16295697 52.48039191 4.48929544 53.17738001 12.875 51 C13.86628906 50.75636719 14.85757813 50.51273438 15.87890625 50.26171875 C18.63085104 49.45637507 18.63085104 49.45637507 20.3125 46.3125 C20.38892709 44.20100355 20.38892709 44.20100355 19.3125 42.3125 C15.27303161 40.26615627 11.34896483 39.81889819 6.87890625 39.34765625 C6.16451889 39.26881699 5.45013153 39.18997772 4.71409607 39.10874939 C1.68395407 38.77455846 -1.34784219 38.45671307 -4.37963867 38.13793945 C-38.11939434 34.5528371 -38.11939434 34.5528371 -45.40234375 26.390625 C-47.37711348 23.19738033 -47.77709105 19.99262476 -47.6875 16.3125 C-46.57944433 11.9541477 -45.10877753 9.24375891 -41.5 6.625 C-28.49322124 -0.28017266 -14.30693545 -0.24360414 0 0 Z " fill="#283C97" transform="translate(353.6875,48.6875)"/>
<path d="M0 0 C6.93 0 13.86 0 21 0 C20.67 1.65 20.34 3.3 20 5 C19.67 10.61 19.34 16.22 19 22 C32.2 21.67 45.4 21.34 59 21 C55.625 31.125 55.625 31.125 53 35 C51.72261963 34.75552124 51.72261963 34.75552124 50.41943359 34.50610352 C46.98131372 33.99723428 43.76232881 33.88641134 40.2890625 33.90234375 C39.04511719 33.90556641 37.80117188 33.90878906 36.51953125 33.91210938 C35.23433594 33.92048828 33.94914062 33.92886719 32.625 33.9375 C31.31660156 33.94201172 30.00820313 33.94652344 28.66015625 33.95117188 C25.44005719 33.96292406 22.2200523 33.97935457 19 34 C19.16299151 38.32519149 19.35719657 42.64753502 19.57983398 46.9699707 C19.65115786 48.43898376 19.71409398 49.90842996 19.76831055 51.37817383 C19.84796678 53.49731655 19.95818879 55.61304335 20.07421875 57.73046875 C20.13182373 59.00301514 20.18942871 60.27556152 20.2487793 61.58666992 C21.17167179 65.78002708 22.71755667 67.31663853 26 70 C34.06366925 73.30691891 44.05644528 71.16061093 51.7578125 67.97265625 C52.49773437 67.65167969 53.23765625 67.33070312 54 67 C54.99 66.67 55.98 66.34 57 66 C57 71.28 57 76.56 57 82 C48.65160916 82.86727371 40.39177715 83.24453204 32 83.3125 C30.80632812 83.34150391 29.61265625 83.37050781 28.3828125 83.40039062 C19.29181904 83.46504211 10.79524971 82.24276826 3.4375 76.5 C-5.94096902 66.88105741 -2.06764098 45.10773499 -2 33 C-14.87 33.99 -14.87 33.99 -28 35 C-26.60854034 30.82562101 -25.49553763 27.80803904 -23.375 24.125 C-22.92898438 23.34382813 -22.48296875 22.56265625 -22.0234375 21.7578125 C-21.68570312 21.17773438 -21.34796875 20.59765625 -21 20 C-20.14792969 20.15855469 -19.29585938 20.31710938 -18.41796875 20.48046875 C-15.01536729 20.99766417 -11.75220961 21.23659468 -8.3125 21.3125 C-7.19488281 21.34988281 -6.07726562 21.38726562 -4.92578125 21.42578125 C-1.96541726 21.26156839 -1.96541726 21.26156839 -0.12109375 19.38671875 C1.33910743 16.27806745 1.32854629 13.92461817 1.25 10.5 C1.23453125 9.3759375 1.2190625 8.251875 1.203125 7.09375 C1.08030546 3.81559887 1.08030546 3.81559887 0 0 Z " fill="#283C97" transform="translate(429,30)"/>
<path d="M0 0 C1.14570465 0.00141495 2.2914093 0.0028299 3.47183228 0.00428772 C7.11926928 0.00987045 10.76664415 0.02241984 14.4140625 0.03515625 C16.89192619 0.04017348 19.36979085 0.044736 21.84765625 0.04882812 C27.91147941 0.05983424 33.97526652 0.07655522 40.0390625 0.09765625 C39.58455066 1.82783133 39.12527393 3.55675502 38.6640625 5.28515625 C38.28121094 6.72955078 38.28121094 6.72955078 37.890625 8.203125 C37.09139954 10.91975832 36.1359263 13.489028 35.0390625 16.09765625 C33.18667969 15.66453125 33.18667969 15.66453125 31.296875 15.22265625 C14.54643471 11.47775423 -2.67151146 8.80108847 -18.4296875 17.453125 C-23.04350258 20.57079352 -25.55556936 23.56987489 -26.9609375 29.09765625 C-27.07949343 34.39619415 -26.33784077 38.87652716 -22.9609375 43.09765625 C-15.63516044 50.65236384 -4.08056798 52.05078604 5.9140625 52.34765625 C17.36926609 52.24183451 28.8426637 50.47393925 39.0390625 45.09765625 C39.0390625 50.70765625 39.0390625 56.31765625 39.0390625 62.09765625 C26.82583489 63.49345369 14.71181249 64.30816655 2.4140625 64.34765625 C1.26647461 64.35667969 0.11888672 64.36570312 -1.06347656 64.375 C-16.74610906 64.32053065 -32.26881188 61.95257298 -43.859375 50.55078125 C-48.99607056 44.55478717 -51.83344961 38.52925984 -51.3828125 30.54296875 C-50.65347063 26.31548715 -49.05871075 22.81391019 -46.9609375 19.09765625 C-46.46980469 18.17146484 -46.46980469 18.17146484 -45.96875 17.2265625 C-40.56200257 8.36660047 -30.54490607 4.5502187 -21.00390625 1.82421875 C-13.91988566 0.13278379 -7.25520174 -0.03384295 0 0 Z " fill="#283C97" transform="translate(664.9609375,48.90234375)"/>
<path d="M0 0 C1.28648437 -0.01675781 2.57296875 -0.03351563 3.8984375 -0.05078125 C8.53089853 0.40081086 11.70016248 1.91865214 15.4375 4.625 C17.23801471 7.18362617 17.50075905 9.20647628 17.625 12.3125 C15.9928072 16.00641003 14.03612683 18.18054573 10.625 20.3125 C4.45037543 22.37070819 -3.96874407 22.61847509 -10.10546875 20.265625 C-12.88187157 18.54617699 -14.89970756 17.26308489 -16.375 14.3125 C-16.75 11 -16.75 11 -16.375 7.3125 C-11.53309555 1.26011944 -7.59305455 0.0227337 0 0 Z " fill="#EC242F" transform="translate(144.375,88.6875)"/>
<path d="M0 0 C3.01162255 1.67881938 4.60653132 3.33557822 6.5234375 6.2109375 C6.9609375 9.5859375 6.9609375 9.5859375 6.5234375 13.2109375 C3.91465396 16.47191693 1.40247315 18.69422114 -2.4765625 20.2109375 C-5.71875 20.51171875 -5.71875 20.51171875 -9.3515625 20.5234375 C-10.54523438 20.54019531 -11.73890625 20.55695313 -12.96875 20.57421875 C-17.97929345 20.05530946 -21.2381588 18.35407938 -24.9140625 14.9609375 C-26.4765625 12.2109375 -26.4765625 12.2109375 -26.6015625 8.7109375 C-25.11644123 4.09056021 -23.41854911 2.94619351 -19.4765625 0.2109375 C-14.44004004 -2.30732373 -5.32716561 -1.69729882 0 0 Z " fill="#EC242F" transform="translate(129.4765625,60.7890625)"/>
<path d="M0 0 C4.4075 2.7675 4.4075 2.7675 5.6875 4.6875 C6.25 7.5625 6.25 7.5625 5.6875 10.6875 C2.70125135 13.74161793 0.04395228 16.29145888 -4.3125 16.6875 C-5.385 16.790625 -6.4575 16.89375 -7.5625 17 C-12.11621425 16.62052381 -15.5220104 15.22065646 -19.3125 12.6875 C-20.73291821 9.84666359 -20.62702272 7.83272722 -20.3125 4.6875 C-15.31793011 -1.97192652 -7.41851301 -2.93941081 0 0 Z " fill="#EC242F" transform="translate(90.3125,44.3125)"/>
<path d="M0 0 C1.32 0 2.64 0 4 0 C4.50559908 1.43554025 5.0042749 2.8735202 5.5 4.3125 C5.7784375 5.11300781 6.056875 5.91351563 6.34375 6.73828125 C7 9 7 9 7 12 C7.66 12 8.32 12 9 12 C9.103125 11.13375 9.20625 10.2675 9.3125 9.375 C10.03398414 5.83316877 11.27123261 3.15687958 13 0 C14.32 0 15.64 0 17 0 C17.33 6.27 17.66 12.54 18 19 C16.68 18.67 15.36 18.34 14 18 C13.67 15.36 13.34 12.72 13 10 C12.01 12.97 11.02 15.94 10 19 C8.68 19 7.36 19 6 19 C5.01 16.36 4.02 13.72 3 11 C2.67 13.64 2.34 16.28 2 19 C0.68 19 -0.64 19 -2 19 C-1.85982174 16.02046641 -1.71313658 13.04150696 -1.5625 10.0625 C-1.52318359 9.21236328 -1.48386719 8.36222656 -1.44335938 7.48632812 C-1.40146484 6.67744141 -1.35957031 5.86855469 -1.31640625 5.03515625 C-1.27974854 4.2862915 -1.24309082 3.53742676 -1.20532227 2.76586914 C-1 1 -1 1 0 0 Z " fill="#58585A" transform="translate(616,141)"/>
<path d="M0 0 C3.1875 2.1875 3.1875 2.1875 5 5 C5.125 7.625 5.125 7.625 4 10 C0.39418484 13.26776999 -3.17415271 13.47207209 -7.83984375 13.27734375 C-10.98947751 12.87296039 -12.73906983 12.26093017 -15 10 C-15.625 6.5 -15.625 6.5 -15 3 C-11.10227694 -1.02764716 -5.2490625 -0.91923026 0 0 Z " fill="#EC242F" transform="translate(47,34)"/>
<path d="M0 0 C0.08112454 2.58396679 0.14054748 5.16537568 0.1875 7.75 C0.22520508 8.84441406 0.22520508 8.84441406 0.26367188 9.9609375 C0.30761217 13.18322563 0.20330509 15.59338983 -1.25 18.5 C-4.31399031 21.12627741 -7.10740951 20.25525184 -11 20 C-11.33 18.68 -11.66 17.36 -12 16 C-9.69 16 -7.38 16 -5 16 C-4.67 15.34 -4.34 14.68 -4 14 C-5.11375 14.061875 -6.2275 14.12375 -7.375 14.1875 C-8.57125 14.125625 -9.7675 14.06375 -11 14 C-13.48038907 10.2794164 -13.46337203 8.40203429 -13 4 C-9.93472556 -1.19763927 -5.39221271 -0.41478559 0 0 Z M-8 3 C-10.33391203 5.78114056 -10.33391203 5.78114056 -9.625 8.6875 C-9.41875 9.450625 -9.2125 10.21375 -9 11 C-8.01 11.33 -7.02 11.66 -6 12 C-5.34 11.67 -4.68 11.34 -4 11 C-3.15701426 8.61915122 -3.15701426 8.61915122 -3 6 C-3.66 5.01 -4.32 4.02 -5 3 C-5.99 3 -6.98 3 -8 3 Z " fill="#58585A" transform="translate(690,146)"/>
<path d="M0 0 C8 0 8 0 10.5 1.5 C10.995 1.995 11.49 2.49 12 3 C11.814375 3.969375 11.62875 4.93875 11.4375 5.9375 C11.293125 6.948125 11.14875 7.95875 11 9 C11.33 9.33 11.66 9.66 12 10 C12.375 13.375 12.375 13.375 12 17 C8.0177569 20.74089503 5.8164612 20 0 20 C0 13.4 0 6.8 0 0 Z M3 3 C3 4.65 3 6.3 3 8 C4.65 7.67 6.3 7.34 8 7 C7.67 5.68 7.34 4.36 7 3 C5.68 3 4.36 3 3 3 Z M3 11 C3 12.98 3 14.96 3 17 C4.65 16.67 6.3 16.34 8 16 C8.33 14.68 8.66 13.36 9 12 C6.03 11.505 6.03 11.505 3 11 Z " fill="#58585A" transform="translate(422,141)"/>
<path d="M0 0 C1.32 0 2.64 0 4 0 C4 6.6 4 13.2 4 20 C-5.49963262 21.35709037 -5.49963262 21.35709037 -7.7734375 19.734375 C-9.74147108 16.95155045 -9.82382071 14.34740653 -10 11 C-9.5 8.625 -9.5 8.625 -8 7 C-4.375 6.25 -4.375 6.25 -1 6 C-0.67 4.02 -0.34 2.04 0 0 Z M-4 9 C-6.28728734 10.83883881 -6.28728734 10.83883881 -6.125 13.625 C-6.08375 14.40875 -6.0425 15.1925 -6 16 C-4.02 16.99 -4.02 16.99 -2 18 C0.34973818 16.10244856 0.34973818 16.10244856 0.125 12.875 C0.08375 11.92625 0.0425 10.9775 0 10 C-1.89179203 9.3185177 -1.89179203 9.3185177 -4 9 Z " fill="#58585A" transform="translate(473,140)"/>
<path d="M0 0 C0 1.32 0 2.64 0 4 C-1.98 4 -3.96 4 -6 4 C-5.26600588 7.2942379 -5.26600588 7.2942379 -1.9375 8.8125 C1 11 1 11 1.625 14.0625 C1 17 1 17 -0.625 18.875 C-3.60417691 20.28618906 -5.73834906 20.28362182 -9 20 C-9.66 19.67 -10.32 19.34 -11 19 C-11 18.01 -11 17.02 -11 16 C-8.69 16 -6.38 16 -4 16 C-3.67 15.01 -3.34 14.02 -3 13 C-4.134375 12.443125 -5.26875 11.88625 -6.4375 11.3125 C-9.06270837 9.80553455 -9.84885734 9.33587259 -11.125 6.5 C-11 4 -11 4 -10.0625 1.6875 C-6.83426664 -0.95378184 -4.08676931 -0.26798487 0 0 Z " fill="#58585A" transform="translate(519,141)"/>
<path d="M0 0 C1.32 0 2.64 0 4 0 C4.33 3.63 4.66 7.26 5 11 C5.99 10.67 6.98 10.34 8 10 C8.33 6.7 8.66 3.4 9 0 C10.32 0 11.64 0 13 0 C13 4.62 13 9.24 13 14 C9.7 14.33 6.4 14.66 3 15 C-0.77755334 10.27805833 -0.30096975 5.74071928 0 0 Z " fill="#58585A" transform="translate(436,146)"/>
<path d="M0 0 C5.4679803 -0.36453202 5.4679803 -0.36453202 7.6875 1.15625 C9.51962482 3.72994915 9.29770208 5.56510786 9.1875 8.6875 C9.16042969 9.68136719 9.13335938 10.67523438 9.10546875 11.69921875 C9.07066406 12.45847656 9.03585937 13.21773437 9 14 C7.54263913 14.19491452 6.08405407 14.38069358 4.625 14.5625 C3.81289063 14.66691406 3.00078125 14.77132812 2.1640625 14.87890625 C0 15 0 15 -2 14 C-2 11.69 -2 9.38 -2 7 C0.64738916 5.5393715 1.89448334 5 5 5 C5 4.34 5 3.68 5 3 C3.02 3.33 1.04 3.66 -1 4 C-0.67 2.68 -0.34 1.36 0 0 Z M2 8 C2 9.32 2 10.64 2 12 C2.99 11.67 3.98 11.34 5 11 C5 10.01 5 9.02 5 8 C4.01 8 3.02 8 2 8 Z " fill="#58585A" transform="translate(638,146)"/>
<path d="M0 0 C5.4679803 -0.36453202 5.4679803 -0.36453202 7.6875 1.15625 C9.51962482 3.72994915 9.29770208 5.56510786 9.1875 8.6875 C9.16042969 9.68136719 9.13335938 10.67523438 9.10546875 11.69921875 C9.07066406 12.45847656 9.03585937 13.21773437 9 14 C7.54364629 14.22174933 6.08477044 14.42698698 4.625 14.625 C3.81289063 14.74101562 3.00078125 14.85703125 2.1640625 14.9765625 C1.44992187 14.98429688 0.73578125 14.99203125 0 15 C-2 13 -2 13 -2.125 9.875 C-2.08375 8.92625 -2.0425 7.9775 -2 7 C0.64738916 5.5393715 1.89448334 5 5 5 C5 4.34 5 3.68 5 3 C3.02 3.33 1.04 3.66 -1 4 C-0.67 2.68 -0.34 1.36 0 0 Z M2 8 C2 9.32 2 10.64 2 12 C3.32 11.34 4.64 10.68 6 10 C6 9.34 6 8.68 6 8 C4.68 8 3.36 8 2 8 Z " fill="#58585A" transform="translate(666,146)"/>
<path d="M0 0 C3.3125 0.8125 3.3125 0.8125 4.3125 1.8125 C4.35330783 3.81208364 4.35504356 5.81295254 4.3125 7.8125 C1.6725 8.1425 -0.9675 8.4725 -3.6875 8.8125 C-3.6875 9.4725 -3.6875 10.1325 -3.6875 10.8125 C-1.3775 10.8125 0.9325 10.8125 3.3125 10.8125 C3.6425 11.8025 3.9725 12.7925 4.3125 13.8125 C1.47166359 15.23291821 -0.54227278 15.12702272 -3.6875 14.8125 C-6.0625 13.25 -6.0625 13.25 -7.6875 10.8125 C-8.25395882 6.84728823 -8.26340314 4.73394502 -6.125 1.3125 C-3.6875 -0.1875 -3.6875 -0.1875 0 0 Z M-2.6875 2.8125 C-3.6775 4.2975 -3.6775 4.2975 -4.6875 5.8125 C-2.7075 5.8125 -0.7275 5.8125 1.3125 5.8125 C0.9825 4.8225 0.6525 3.8325 0.3125 2.8125 C-0.6775 2.8125 -1.6675 2.8125 -2.6875 2.8125 Z " fill="#58585A" transform="translate(699.6875,146.1875)"/>
<path d="M0 0 C3.0625 0.3125 3.0625 0.3125 4.9375 1.5 C6.41031139 3.87286279 6.28473194 5.57163944 6.0625 8.3125 C3.0925 8.3125 0.1225 8.3125 -2.9375 8.3125 C-1.9475 9.7975 -1.9475 9.7975 -0.9375 11.3125 C2.14615871 11.5627157 2.14615871 11.5627157 5.0625 11.3125 C4.7325 12.6325 4.4025 13.9525 4.0625 15.3125 C0.83249584 15.53272756 -1.33725854 15.6207321 -4.25 14.125 C-6.40407771 11.81136098 -6.78758899 10.46063112 -6.9375 7.3125 C-5.65569919 3.07269732 -4.69440845 0.49940515 0 0 Z M-1.9375 3.3125 C-2.2675 4.3025 -2.5975 5.2925 -2.9375 6.3125 C-0.9575 6.3125 1.0225 6.3125 3.0625 6.3125 C2.7325 5.3225 2.4025 4.3325 2.0625 3.3125 C0.7425 3.3125 -0.5775 3.3125 -1.9375 3.3125 Z " fill="#58585A" transform="translate(527.9375,145.6875)"/>
<path d="M0 0 C0.33 2.31 0.66 4.62 1 7 C-1.97 7 -4.94 7 -8 7 C-7.01 8.485 -7.01 8.485 -6 10 C-2.91634129 10.2502157 -2.91634129 10.2502157 0 10 C0.33 10.99 0.66 11.98 1 13 C-1.80915474 14.40457737 -3.88810534 14.24895157 -7 14 C-9.375 13.0625 -9.375 13.0625 -11 11 C-11.5655824 7.9008393 -11.5588754 5.09974192 -11 2 C-7.97861788 -2.10907968 -4.59200188 -0.97138501 0 0 Z M-6 2 C-6.99 3.485 -6.99 3.485 -8 5 C-6.02 5 -4.04 5 -2 5 C-2.33 4.01 -2.66 3.02 -3 2 C-3.99 2 -4.98 2 -6 2 Z " fill="#58585A" transform="translate(582,147)"/>
<path d="M0 0 C1.423125 -0.061875 2.84625 -0.12375 4.3125 -0.1875 C5.51326172 -0.23970703 5.51326172 -0.23970703 6.73828125 -0.29296875 C9 0 9 0 10.78125 1.15625 C12.48719934 3.73704515 12.29557492 5.62537733 12.1875 8.6875 C12.16042969 9.68136719 12.13335938 10.67523438 12.10546875 11.69921875 C12.07066406 12.45847656 12.03585937 13.21773437 12 14 C10.68 14 9.36 14 8 14 C7.67 10.7 7.34 7.4 7 4 C6.01 4.33 5.02 4.66 4 5 C3.67 7.97 3.34 10.94 3 14 C2.01 14 1.02 14 0 14 C0 9.38 0 4.76 0 0 Z " fill="#58585A" transform="translate(650,146)"/>
<path d="M0 0 C0.99 0 1.98 0 3 0 C3.06058594 0.62648437 3.12117187 1.25296875 3.18359375 1.8984375 C3.26738281 2.71570313 3.35117187 3.53296875 3.4375 4.375 C3.51871094 5.18710938 3.59992187 5.99921875 3.68359375 6.8359375 C3.89090114 9.04272805 3.89090114 9.04272805 5 11 C5.99 10.67 6.98 10.34 8 10 C8.33 6.7 8.66 3.4 9 0 C9.99 0 10.98 0 12 0 C12 4.62 12 9.24 12 14 C10.576875 14.226875 9.15375 14.45375 7.6875 14.6875 C6.88699219 14.81511719 6.08648438 14.94273437 5.26171875 15.07421875 C3 15 3 15 1.21875 13.90625 C-0.53424137 11.1643917 -0.29136902 9.03243949 -0.1875 5.8125 C-0.16042969 4.72582031 -0.13335938 3.63914063 -0.10546875 2.51953125 C-0.07066406 1.68808594 -0.03585937 0.85664063 0 0 Z " fill="#58585A" transform="translate(548,146)"/>
<path d="M0 0 C-0.33 1.32 -0.66 2.64 -1 4 C-2.65 4.33 -4.3 4.66 -6 5 C-6.33 5.99 -6.66 6.98 -7 8 C-6.01 9.485 -6.01 9.485 -5 11 C-2.41619823 11.25030977 -2.41619823 11.25030977 0 11 C-0.33 12.32 -0.66 13.64 -1 15 C-2.918125 14.8453125 -2.918125 14.8453125 -4.875 14.6875 C-5.95394531 14.60048828 -5.95394531 14.60048828 -7.0546875 14.51171875 C-9 14 -9 14 -11 11 C-11.4375 7.5625 -11.4375 7.5625 -11 4 C-7.61587319 0.11820748 -5.04155904 -0.46898224 0 0 Z " fill="#58585A" transform="translate(546,146)"/>
<path d="M0 0 C2.64 0 5.28 0 8 0 C8 0.99 8 1.98 8 3 C6.68 3.33 5.36 3.66 4 4 C3.67 7.3 3.34 10.6 3 14 C2.01 14 1.02 14 0 14 C0 9.38 0 4.76 0 0 Z " fill="#58585A" transform="translate(563,146)"/>
<path d="M0 0 C0.99 0 1.98 0 3 0 C3 6.6 3 13.2 3 20 C2.01 20 1.02 20 0 20 C0 13.4 0 6.8 0 0 Z " fill="#58585A" transform="translate(458,140)"/>
<path d="M0 0 C0.99 0 1.98 0 3 0 C3 6.27 3 12.54 3 19 C2.01 19 1.02 19 0 19 C0 12.73 0 6.46 0 0 Z " fill="#58585A" transform="translate(597,141)"/>
<path d="M0 0 C0.99 0 1.98 0 3 0 C3 6.27 3 12.54 3 19 C2.01 19 1.02 19 0 19 C0 12.73 0 6.46 0 0 Z " fill="#58585A" transform="translate(491,141)"/>
<path d="M0 0 C1.32 0 2.64 0 4 0 C4 4.62 4 9.24 4 14 C2.68 14 1.36 14 0 14 C0 9.38 0 4.76 0 0 Z " fill="#58585A" transform="translate(451,146)"/>
<path d="M0 0 C0.99 0.33 1.98 0.66 3 1 C2.67 1.99 2.34 2.98 2 4 C1.01 3.67 0.02 3.34 -1 3 C-0.67 2.01 -0.34 1.02 0 0 Z " fill="#58585A" transform="translate(452,141)"/>
</svg>
